<?xml version="1.0" encoding="utf-8"?>
<!-- Generator: Adobe Illustrator 26.0.2, SVG Export Plug-In . SVG Version: 6.00 Build 0)  -->
<svg version="1.1" id="Layer_1" xmlns="http://www.w3.org/2000/svg" xmlns:xlink="http://www.w3.org/1999/xlink" x="0px" y="0px"
	 viewBox="0 0 120 120" style="enable-background:new 0 0 120 120;" xml:space="preserve">
<style type="text/css">
	.st0{fill:#B8B9BC;fill-opacity:0.75;}
	.st1{fill-rule:evenodd;clip-rule:evenodd;fill:#B8B9BC;fill-opacity:0.75;}
</style>
<path class="st0" d="M98.5,31.4l-13,13c2.8,4.6,4.4,9.9,4.4,15.7c0,16.6-13.4,30-30,30c-5.7,0-11.1-1.6-15.7-4.4l-13,13
	c8,5.9,17.9,9.5,28.6,9.5c26.5,0,48-21.5,48-48C108,49.3,104.5,39.4,98.5,31.4z M30,60c0-16.6,13.4-30,30-30
	c5.7,0,11.1,1.6,15.7,4.4l13-13c-8-5.9-17.9-9.5-28.6-9.5c-26.5,0-48,21.5-48,48c0,10.7,3.5,20.6,9.5,28.6l13-13
	C31.6,71.1,30,65.7,30,60z"/>
<circle class="st1" cx="108" cy="12" r="12"/>
<circle class="st1" cx="12" cy="108" r="12"/>
</svg>
