<svg xmlns="http://www.w3.org/2000/svg" xmlns:xlink="http://www.w3.org/1999/xlink" viewBox="0 0 153.07 153.07"><defs><style>.cls-1{isolation:isolate;}.cls-2{fill:url(#linear-gradient);}.cls-3{fill:url(#linear-gradient-2);}.cls-4{fill:url(#linear-gradient-3);}.cls-5{fill:#fff;mix-blend-mode:overlay;opacity:0.2;}.cls-6{mix-blend-mode:hard-light;opacity:0.6;fill:url(#linear-gradient-4);}</style><linearGradient id="linear-gradient" x1="455.03" y1="330.99" x2="430.81" y2="244.06" gradientUnits="userSpaceOnUse"><stop offset="0" stop-color="#00589f"/><stop offset="0.04" stop-color="#1b6baa"/><stop offset="0.13" stop-color="#4b8ebe"/><stop offset="0.21" stop-color="#71a9ce"/><stop offset="0.29" stop-color="#8cbdd9"/><stop offset="0.35" stop-color="#9cc9e0"/><stop offset="0.4" stop-color="#a2cde2"/></linearGradient><linearGradient id="linear-gradient-2" x1="443.9" y1="364.14" x2="443.9" y2="303.41" gradientTransform="matrix(-1, 0, 0, 1, 889.14, 0)" gradientUnits="userSpaceOnUse"><stop offset="0" stop-color="#006eab"/><stop offset="0.11" stop-color="#0571ad"/><stop offset="0.23" stop-color="#1278b1"/><stop offset="0.36" stop-color="#2985b9"/><stop offset="0.5" stop-color="#4998c3"/><stop offset="0.64" stop-color="#72afd1"/><stop offset="0.78" stop-color="#a5cce1"/><stop offset="0.93" stop-color="#dfedf4"/><stop offset="1" stop-color="#fff"/></linearGradient><linearGradient id="linear-gradient-3" x1="412.14" y1="276.13" x2="415.95" y2="310.68" gradientUnits="userSpaceOnUse"><stop offset="0" stop-color="#a2cde2"/><stop offset="0.13" stop-color="#9dc9e0"/><stop offset="0.29" stop-color="#8ebeda"/><stop offset="0.47" stop-color="#75adcf"/><stop offset="0.66" stop-color="#5394c1"/><stop offset="0.85" stop-color="#2774af"/><stop offset="1" stop-color="#00589f"/></linearGradient><linearGradient id="linear-gradient-4" x1="470.74" y1="359.53" x2="418.38" y2="215.68" gradientUnits="userSpaceOnUse"><stop offset="0" stop-color="#70c27b"/><stop offset="0.05" stop-color="#5f9f67" stop-opacity="0.79"/><stop offset="0.1" stop-color="#4f7d55" stop-opacity="0.58"/><stop offset="0.15" stop-color="#426044" stop-opacity="0.4"/><stop offset="0.21" stop-color="#374837" stop-opacity="0.25"/><stop offset="0.28" stop-color="#2e362d" stop-opacity="0.14"/><stop offset="0.35" stop-color="#282926" stop-opacity="0.06"/><stop offset="0.43" stop-color="#242121" stop-opacity="0.01"/><stop offset="0.54" stop-color="#231f20" stop-opacity="0"/></linearGradient></defs><g class="cls-1"><g id="Artwork"><path class="cls-2" d="M368,287.61a76.43,76.43,0,0,0,1.65,15.82c.09.45.19.89.29,1.34s.18.76.28,1.14.2.81.31,1.22c.34,1.32.72,2.62,1.14,3.91.1.31.2.62.31.92,0,.13.08.25.13.38q.64,1.92,1.41,3.78c.42,1,.85,2.06,1.31,3.07.23.51.47,1,.71,1.51.4.85.83,1.69,1.27,2.52l.36.68c.22.41.45.82.68,1.23.54,1,1.11,1.91,1.69,2.85.25.41.51.81.77,1.21.71,1.1,1.46,2.19,2.23,3.25l.5.69.87,1.14.79,1c.34.43.68.85,1,1.26l.19.22c.5.6,1,1.2,1.54,1.78a76.45,76.45,0,0,0,120.71-8.46,74.84,74.84,0,0,0,5.37-9.38c.6-1.24,1.16-2.49,1.69-3.77a76,76,0,0,0,5.78-26.42c0-.56,0-1.12.05-1.69-18.1-16.37-39.94-23.14-62.33,0-.33.35-.67.69-1,1-31.23,31.25-60.61,12.53-89.68-4.81C368.05,285.89,368,286.75,368,287.61Z" transform="translate(-368.03 -211.07)"/><path class="cls-3" d="M373.56,316.12a76.5,76.5,0,0,0,134.65,14,75.8,75.8,0,0,0,8.7-17.46c-16.6-11.89-35.74-14.5-55.3,5.72C431,350,402.09,333.17,373.56,316.12Z" transform="translate(-368.03 -211.07)"/><path class="cls-4" d="M368,285.47c29.07,17.34,59.45,35.06,90.68,3.81-25.66-16.2-49.05-29.34-76.11-14.38a145.1,145.1,0,0,1-14.36,7C368.15,283.11,368.08,284.29,368,285.47Z" transform="translate(-368.03 -211.07)"/><path class="cls-5" d="M463.74,213.51a76.52,76.52,0,0,1-66.69,134,76.51,76.51,0,1,0,66.69-134Z" transform="translate(-368.03 -211.07)"/><path class="cls-6" d="M521.1,287.61a76.43,76.43,0,0,1-1.65,15.82,74.26,74.26,0,0,1-3.87,12.69,76.5,76.5,0,0,1-134.65,14,74.84,74.84,0,0,1-5.37-9.38c-.6-1.24-1.16-2.49-1.69-3.77s-1.13-2.85-1.64-4.31a76,76,0,0,1-4.14-22.11c0-.56,0-1.12,0-1.69,0-.4,0-.81,0-1.21a76.53,76.53,0,0,1,152.67-7.78q.09.84.15,1.68c.1,1.17.17,2.35.21,3.53C521.09,285.89,521.1,286.75,521.1,287.61Z" transform="translate(-368.03 -211.07)"/></g></g></svg>