<?xml version="1.0" encoding="utf-8"?>
<!-- Generator: Adobe Illustrator 26.0.2, SVG Export Plug-In . SVG Version: 6.00 Build 0)  -->
<svg version="1.1" id="Layer_1" xmlns="http://www.w3.org/2000/svg" xmlns:xlink="http://www.w3.org/1999/xlink" x="0px" y="0px"
	 viewBox="0 0 142.9 124.4" style="enable-background:new 0 0 142.9 124.4;" xml:space="preserve">
<style type="text/css">
	.st0{fill:#22435B;}
	.st1{fill:#2A5368;}
	.st2{fill:#1a334d;}
	.st3{fill:#1E3A54;}
	.st4{fill:#274C63;}
	.st5{fill:#295368;}
</style>
<path class="st0" d="M107.6,71l-4.3,5.4c-1.1,0.9-2,1.9-2.7,3.1C88.7,93,74.1,103.9,57.7,111.4c-1.6,0.4-3.3,0.3-4.9-0.2
	c-11.2-3-20.3-9.2-28.1-17.6c-0.7-0.8-1.3-1.7-1.9-2.6c-1.3-1.9-1.7-3.8-0.2-5.7c0-0.2,0.1-0.5,0.2-0.7c2.5-4.7,2.5-4.7,7.7-4.2
	c5,0.5,10,0.8,15.1,0.9c-0.1,2.4,1.3,3.6,3.2,4.7c5.9,3.6,12.2,5.8,19.1,5.6c9.5-0.2,18.6-4.2,25-11.2c3.8-4,6.6-8.8,8.2-14
	c0.5-1.8,0.6-3.7,0.3-5.6c1-1.7,3-2.4,4.2-3.9c0.8-0.7,1.6-1.4,2.4-2.2c0.5-0.5,1-1.2,1.9-0.8c0.8,0.3,1.3,1.1,1.3,2
	c0.4,3.7-0.1,7.5-1.6,11C109.1,68.3,108.4,69.7,107.6,71z"/>
<path class="st1" d="M22.6,85.3c-1.5,3.5,0.9,5.9,2.9,8.1c7.6,8.2,16.7,14.3,27.6,17.2c1.5,0.4,3.1,0.6,4.6,0.8
	c-5.8,3-11.9,5.5-18.3,7.2c-11.8,3.7-24.2,5.6-36.6,5.8H0l6.7-11.8c5-8.7,10-17.5,15-26.2C22,86.1,22.3,85.7,22.6,85.3z"/>
<path class="st2" d="M77.2,9.3c3.8,5.7,7,11.9,10.5,17.8c4.5,7.6,8.7,15.3,13.2,22.9c1.1,1.9,0.9,2.9-0.8,4.3
	c-5.2,4.3-10.7,8.1-16.6,11.4c-1.7,0.9-2.5,0.6-3.3-1c-1.3-2.6-2.8-5.1-4.2-7.6c-1.2-2.6-1.8-5.4-1.8-8.2c0-11.7,0-23.5,0-35.2
	c-0.1-1,0.1-2,0.4-3C75.1,9.5,75.8,8.6,77.2,9.3z"/>
<path class="st3" d="M77.2,9.3c-1.7,0-2.1,1-2.1,2.4c0,13,0,25.9,0,38.9c0.1,2.1,0.4,4.3,0.9,6.4c-1-1.7-2.1-3.4-3.1-5.1
	c-0.8-1.5-1.4-1.9-2.4,0c-2.4,4.5-5,8.8-7.5,13.2l-2.1,3.8c-2,1.2-3.2,0.6-3.3-1.8c-0.1-2.2-0.2-4.5,0-6.7c0.3-6.5,0-13.1,0.1-19.6
	c0.1-3.8,0.2-7.6-0.1-11.4c-0.1-2.7,0.5-5.3,1.6-7.7c3.6-7.2,7.9-14,11.8-21c0.7-1.2,1.2-0.9,1.7,0.1C74.1,3.7,76.1,6.3,77.2,9.3z"
	/>
<path class="st0" d="M59.1,21.8c-0.7,6-0.9,12.1-0.7,18.1c0.3,3.2,0.2,6.4-0.2,9.5c-0.2,1-0.2,2-0.1,3c0.3,4.7,0.3,9.5,0,14.2
	c-0.1,1.8,0.3,3.3,2.7,2.3c-1.5,4.2-4.3,6.2-9.1,6.4c-7,0.4-14,0.3-20.9-0.5c-1.2-0.1-2.2-0.4-1.3-2C39.3,56,49,39,58.7,22.1
	C58.8,22,58.9,21.8,59.1,21.8z"/>
<path class="st3" d="M101.5,60.7c1.1,1,1.4,2.5,0.9,3.9c-1.5,6-4.5,11.5-8.7,16c-7,7.8-17.1,12.1-27.6,11.7
	c-5.7-0.2-11.2-1.8-16-4.7c-1.1-0.6-2.2-1.2-3.2-1.8c-1.7-1.1-2.9-2.4-1.2-4.4h0.8c2.8-0.4,5.7-0.1,8.6-0.6c1.2-0.1,2.4-0.4,3.6-0.8
	c12.7-2.3,24.8-7.1,35.6-14.3C96.6,64,99.1,62.4,101.5,60.7z"/>
<path class="st4" d="M119.1,82.2c3.2,4.6,5.7,9.5,8.4,14.3c5.2,8.9,10.2,17.8,15.4,26.7l-0.4,0.6l-23.9-14.1
	c1.2-2.5,1.3-5.1,1.2-7.7c-0.2-6,0.7-12.1-1-18C118.5,83.5,118.7,82.7,119.1,82.2z"/>
<path class="st3" d="M119.1,82.2c2.5,8.1,1.1,16.5,1.5,24.7c0.1,1.5-0.9,2.2-2,2.9c-3.7-2.3-5.5-3.2-10-6c0.9-1.4,1.3-3.1,1.3-4.8
	c0-5.1,0-10.2,0-15.2c0.1-1.6-0.3-3.2-1.3-4.5c1.5-2.4,2.9-3.9,4.3-5.9c0.7-1,1.2-0.4,1.6,0.4C116,76.7,117.9,79.2,119.1,82.2z"/>
<path class="st2" d="M108.5,79.4c1.6-0.1,2,1,2,2.2c0,6.6,0,13.2,0,19.9c0.1,1.2-0.7,2.3-1.9,2.4c0,0-0.1,0-0.1,0
	c-1.8-1.3-3.6-2.8-5.2-4.3c-5.5-5-4.2-3.5-6.9-6.5c-0.7-1.2,0.4-1.6,1-2.2C101.1,87,104.8,83.2,108.5,79.4z"/>
<path class="st0" d="M107.6,71c0.1-2.5,1.6-4.7,2.2-7c0.6-2.6,0.8-5.2,0.7-7.9c0-0.7,0.1-1.4-0.7-1.7c-1-0.5-1.3,0.4-1.8,0.8
	c-0.8,0.6-1.2,1.6-2.4,1.7c4.2-4.6,8.6-9.1,12.4-14c2.1-0.6,2.7-0.2,3.2,1.7c0.7,2.9-0.7,5.3-1.7,7.8C116.3,59,112.3,65.3,107.6,71z
	"/>
<path class="st5" d="M119.6,52.4c0.2-2.3,1.5-4.4,1.1-6.9c-0.3-1.8-0.6-2.8-2.6-2.6c3.7-5.9,7.5-11.8,10.2-18.2
	c2.7-6.5,4.8-13.3,6.2-20.2c0.1,3.4-0.3,6.9-1.2,10.2c-2.5,12.3-6.6,24.2-12.3,35.4C120.6,50.9,120.1,51.6,119.6,52.4z"/>
<path class="st0" d="M58.6,79.9c-2,1.7-4.6,0.9-6.9,1.4c-1.7,0.2-3.5,0.2-5.2,0L58.6,79.9z"/>
<path class="st0" d="M100.6,79.5c0.2-1.7,1.3-2.4,2.7-3.1C102.6,77.6,101.7,78.6,100.6,79.5z"/>
</svg>
