<svg id="Layer_1" data-name="Layer 1" xmlns="http://www.w3.org/2000/svg" viewBox="0 0 142.94 124.44"><defs><style>.cls-1{fill:#e47d3a;}.cls-2{fill:#ee9a3e;}.cls-3{fill:#db6139;}.cls-4{fill:#e0733a;}.cls-5{fill:#e6833b;}.cls-6{fill:#e07139;}.cls-7{fill:#e47e3b;}.cls-8{fill:#df6d39;}.cls-9{fill:#da5d39;}.cls-10{fill:#e47f3b;}.cls-11{fill:#eb9340;}</style></defs><path class="cls-1" d="M820.79,512.94l-4.33,5.42a11.1,11.1,0,0,0-2.67,3.08,128.65,128.65,0,0,1-42.9,31.92,8.52,8.52,0,0,1-4.9-.2c-11.16-3-20.31-9.19-28.09-17.58A26,26,0,0,1,736,533c-1.33-1.87-1.65-3.78-.2-5.74a3.19,3.19,0,0,1,.23-.7c2.46-4.66,2.46-4.69,7.7-4.19,5,.48,10.05.82,15.1.88-.11,2.4,1.33,3.59,3.25,4.74,5.91,3.56,12.23,5.82,19.13,5.56a34.78,34.78,0,0,0,25-11.24,36.2,36.2,0,0,0,8.22-14,14.14,14.14,0,0,0,.32-5.59c1-1.67,3-2.37,4.17-3.85a29,29,0,0,0,2.36-2.2c.54-.5,1-1.16,1.91-.83a2.05,2.05,0,0,1,1.28,2,22.29,22.29,0,0,1-1.58,10.95A38.29,38.29,0,0,1,820.79,512.94Z" transform="translate(-713.15 -441.94)"/><path class="cls-2" d="M735.75,527.26c-1.45,3.55.86,5.91,2.89,8.09,7.64,8.21,16.65,14.31,27.63,17.18,1.51.4,3.08.56,4.62.83a95.06,95.06,0,0,1-18.26,7.22,128.48,128.48,0,0,1-36.57,5.8h-2.91l6.7-11.76q7.49-13.11,15-26.21A9.09,9.09,0,0,1,735.75,527.26Z" transform="translate(-713.15 -441.94)"/><path class="cls-3" d="M790.39,451.28c3.84,5.73,7,11.86,10.47,17.8,4.45,7.59,8.73,15.28,13.23,22.85,1.12,1.89.89,2.94-.78,4.32a104.11,104.11,0,0,1-16.64,11.37c-1.66.9-2.48.64-3.3-1-1.3-2.59-2.78-5.09-4.18-7.63a18.52,18.52,0,0,1-1.8-8.21q0-17.61,0-35.21a8,8,0,0,1,.36-3C788.21,451.41,788.92,450.55,790.39,451.28Z" transform="translate(-713.15 -441.94)"/><path class="cls-4" d="M790.39,451.28c-1.68,0-2.12,1.05-2.13,2.44,0,13,0,25.94,0,38.91a46.23,46.23,0,0,0,.88,6.37c-1-1.7-2.12-3.37-3.09-5.1-.84-1.52-1.4-1.86-2.4,0-2.43,4.45-5,8.81-7.54,13.21L774,510.86c-2,1.2-3.23.64-3.34-1.79-.11-2.22-.15-4.48,0-6.69.33-6.53,0-13.06.11-19.59.09-3.76.18-7.6-.09-11.4a16.59,16.59,0,0,1,1.6-7.7c3.64-7.16,7.92-14,11.83-21,.68-1.21,1.2-.88,1.71.09C787.26,445.65,789.21,448.26,790.39,451.28Z" transform="translate(-713.15 -441.94)"/><path class="cls-5" d="M772.21,463.69a110.39,110.39,0,0,0-.65,18.1,46.93,46.93,0,0,1-.2,9.54,12,12,0,0,0-.08,3,107.11,107.11,0,0,1,0,14.22c-.07,1.77.26,3.32,2.68,2.32-1.55,4.22-4.3,6.16-9.07,6.43a123.45,123.45,0,0,1-20.89-.5c-1.19-.13-2.24-.36-1.3-2q14.58-25.36,29.15-50.76A1.47,1.47,0,0,1,772.21,463.69Z" transform="translate(-713.15 -441.94)"/><path class="cls-6" d="M814.68,502.67a3.45,3.45,0,0,1,.9,3.86,37.25,37.25,0,0,1-8.66,16,35.49,35.49,0,0,1-27.61,11.74,32.92,32.92,0,0,1-16-4.73c-1.07-.62-2.2-1.17-3.23-1.85-1.66-1.09-2.89-2.36-1.25-4.41h.83c2.84-.4,5.73-.1,8.58-.63a15.11,15.11,0,0,0,3.56-.78,93.7,93.7,0,0,0,35.57-14.27C809.77,505.93,812.22,504.31,814.68,502.67Z" transform="translate(-713.15 -441.94)"/><path class="cls-7" d="M832.29,524.19c3.19,4.56,5.65,9.55,8.44,14.35,5.16,8.89,10.25,17.82,15.37,26.73l-.42.59-23.92-14.07c1.24-2.45,1.27-5.08,1.17-7.73-.23-6,.68-12.08-1-18A1.75,1.75,0,0,1,832.29,524.19Z" transform="translate(-713.15 -441.94)"/><path class="cls-8" d="M832.29,524.19c2.49,8.11,1.09,16.45,1.45,24.68.06,1.47-.92,2.22-2,2.92-3.44-1.82-7-3.51-10-6A8.82,8.82,0,0,0,823,541c-.05-5.08,0-10.16,0-15.25a6.85,6.85,0,0,0-1.26-4.47c1-2.28,2.93-3.91,4.35-5.9.69-1,1.25-.39,1.64.36C829.16,518.61,831.1,521.19,832.29,524.19Z" transform="translate(-713.15 -441.94)"/><path class="cls-9" d="M821.69,521.31c1.59-.1,2,1,2,2.22,0,6.62,0,13.24,0,19.86a2.15,2.15,0,0,1-2,2.41,55.11,55.11,0,0,1-5.19-4.33c-5.51-5.05-4.15-3.55-6.94-6.5-.71-1.17.4-1.64,1-2.23C814.29,528.91,818,525.12,821.69,521.31Z" transform="translate(-713.15 -441.94)"/><path class="cls-10" d="M820.79,512.94c.11-2.55,1.57-4.67,2.23-7.05a28.39,28.39,0,0,0,.72-7.88c0-.67.06-1.35-.69-1.73-1-.49-1.3.4-1.84.83-.76.6-1.23,1.61-2.36,1.71,4.25-4.56,8.57-9.06,12.39-14,2.1-.59,2.7-.22,3.16,1.69.69,2.89-.66,5.31-1.66,7.82A97.71,97.71,0,0,1,820.79,512.94Z" transform="translate(-713.15 -441.94)"/><path class="cls-11" d="M832.74,494.34c.18-2.33,1.48-4.41,1.09-6.93-.27-1.8-.61-2.82-2.59-2.58,3.74-5.88,7.48-11.76,10.17-18.24a111.41,111.41,0,0,0,6.21-20.16,38.81,38.81,0,0,1-1.18,10.19A138.48,138.48,0,0,1,834.16,492C833.74,492.82,833.22,493.56,832.74,494.34Z" transform="translate(-713.15 -441.94)"/><path class="cls-1" d="M771.75,521.85c-2,1.67-4.61.92-6.91,1.39a24.6,24.6,0,0,1-5.22,0Z" transform="translate(-713.15 -441.94)"/><path class="cls-10" d="M813.79,521.44c.17-1.65,1.34-2.44,2.67-3.08A11.75,11.75,0,0,1,813.79,521.44Z" transform="translate(-713.15 -441.94)"/></svg>