<?xml version="1.0" encoding="utf-8"?>
<!-- Generator: Adobe Illustrator 26.0.2, SVG Export Plug-In . SVG Version: 6.00 Build 0)  -->
<svg version="1.1" id="Layer_1" xmlns="http://www.w3.org/2000/svg" xmlns:xlink="http://www.w3.org/1999/xlink" x="0px" y="0px"
	 viewBox="0 0 420 420" style="enable-background:new 0 0 420 420;" xml:space="preserve">
<style type="text/css">
	.st0{fill:#b8b9bc;}
</style>
<path class="st0" d="M349.2,15.3h-183v245.6h245.6V79.2C411.9,44.7,383.7,15.3,349.2,15.3z M110,15.3H79.3c-34.5,0-64,28.1-64,64
	V110H110V15.3z M15.3,167.5H110v94.7H15.3V167.5z M317.2,413.1h30.7c34.5,0,64-28.1,64-64v-30.6h-94.7L317.2,413.1z M166.2,318.5
	h94.7v94.7h-94.7L166.2,318.5z M15.3,318.5v30.7c0,34.5,28.1,64,64,64H110v-94.7L15.3,318.5z"/>
</svg>
