<svg id="Layer_1" data-name="Layer 1" xmlns="http://www.w3.org/2000/svg" viewBox="0 0 90 80.41"><defs><style>.cls-1{fill:rgb(241, 90, 41, 1);}</style></defs><path class="cls-1" d="M1018.54,431c0-5.89,0-11.79,0-17.68a16.83,16.83,0,0,1,5.05-12.38,17,17,0,0,1,12-5.12,17.43,17.43,0,0,1,16.69,11.3,16.63,16.63,0,0,1,1.09,5.71q0,18.67,0,37.35c0,.84-.45.69-.93.72s-.83,0-.83-.74c0-12.24.07-24.48,0-36.72a15.2,15.2,0,0,0-9-14.38,15.66,15.66,0,0,0-21.35,8.66,17.28,17.28,0,0,0-1,5.86q0,18.21,0,36.43c0,.28.18.71-.18.83a2.39,2.39,0,0,1-1.4,0c-.25-.08-.14-.43-.14-.65V431Z" transform="translate(-990.98 -395.83)"/><path class="cls-1" d="M1030.54,424.51v-7.12a5.41,5.41,0,0,1,9.61-3.56,5.05,5.05,0,0,1,1.21,3.34c0,5,0,9.92,0,14.89,0,.49-.15.64-.64.64-3.19,0-6.37,0-9.55,0-.57,0-.66-.21-.65-.71,0-2.49,0-5,0-7.48Z" transform="translate(-990.98 -395.83)"/><path class="cls-1" d="M1022.11,431.06c0-5.94,0-11.88,0-17.82a13.87,13.87,0,0,1,27.61-1.83,21.54,21.54,0,0,1,.11,2.78v35.87c0,.19,0,.38,0,.57s-.26.28-.47.28-.38,0-.38-.29,0-.38,0-.57q0-18.3,0-36.59a13,13,0,1,0-26,0v36.94c0,.29,0,.57-.41.58s-.45-.29-.45-.61V431.06Z" transform="translate(-990.98 -395.83)"/><path class="cls-1" d="M1054.23,469.65l1.38-4.48c.2-.68.42-1.36.6-2.05a.6.6,0,0,1,.71-.51c.55,0,1.09,0,1.64,0s.6.13.42.59c-1.06,2.81-2.11,5.64-3.16,8.46-.55,1.47-1.1,2.93-1.71,4.58L1051,468.5c-1.23,2.64-2.39,5.12-3.59,7.67a4.36,4.36,0,0,1-.6-1.31c-1.51-3.9-3-7.8-4.52-11.69-.17-.42-.16-.62.35-.56h.15c.75,0,1.67-.22,2.22.13s.62,1.43.89,2.18c.6,1.63,1.13,3.28,1.68,4.91,0,0,.07.07.19.17.63-1.58,1.34-3.1,1.83-4.69.18-.61-.39-1.28-.63-1.92s-.33-.78.51-.77c1.77,0,1.77,0,2.44,1.68s1.44,3.56,2.16,5.34Z" transform="translate(-990.98 -395.83)"/><path class="cls-1" d="M1028.81,469.15c0-2,0-3.95,0-5.92,0-.47.1-.71.63-.67a11.21,11.21,0,0,0,1.42,0c.45,0,.57.15.56.58,0,1.35,0,2.71,0,4.06,0,.49.13.66.63.65,1.55,0,3.09,0,4.64,0,.47,0,.61-.14.59-.61,0-1.35,0-2.71,0-4.06,0-.45.11-.62.6-.63,2,0,2-.05,2,1.92,0,3.5,0,7,0,10.48,0,.57-.15.74-.72.74-1.87,0-1.87,0-1.87-1.85,0-1,0-2,0-2.93,0-.47-.15-.6-.62-.6-1.54,0-3.08,0-4.63,0-.46,0-.62.13-.61.61,0,1.38,0,2.76,0,4.13,0,.46-.13.62-.6.64-2,.07-2,.09-2-1.92Z" transform="translate(-990.98 -395.83)"/><path class="cls-1" d="M1022,462.44a6.77,6.77,0,0,1,3.55.86c.3.16.44.28.23.64a5.61,5.61,0,0,0-.53,1.32c-.17.69-.46.63-1,.32a3.68,3.68,0,0,0-5.43,1.34c-1.18,2.17-.46,5,1.61,6a4.19,4.19,0,0,0,4.21-.31c.43-.28.64-.26.79.24a5.74,5.74,0,0,0,.41.91c.42.88.42.88-.42,1.32a6.77,6.77,0,0,1-9.27-3c-1.32-2.94-.46-7.12,2.5-8.8A6.11,6.11,0,0,1,1022,462.44Z" transform="translate(-990.98 -395.83)"/><path class="cls-1" d="M1075,468.55c.83-1.68,1.65-3.2,2.32-4.78.4-1,.93-1.39,2-1.21a5.35,5.35,0,0,0,1.2,0c.51,0,.57.15.34.57-1.06,1.91-2.09,3.83-3.14,5.75-.42.77-.83,1.54-1.26,2.3a1.61,1.61,0,0,0-.17.83c0,1,0,2.09,0,3.13,0,.4-.15.56-.55.55s-1,0-1.56,0-.58-.19-.56-.6c0-.59,0-1.2,0-1.78a5.52,5.52,0,0,0-.87-3.44c-1.24-2.23-2.41-4.52-3.64-6.76-.26-.47-.15-.58.32-.55h.08c.82,0,1.78-.28,2.44.12s.8,1.36,1.17,2.08C1073.75,466,1074.35,467.21,1075,468.55Z" transform="translate(-990.98 -395.83)"/><path class="cls-1" d="M1024.57,450.86c.65-.83,1.23-1.57,1.79-2.32a.69.69,0,0,1,.64-.22h17.88a.7.7,0,0,1,.64.21l1.79,2.33Z" transform="translate(-990.98 -395.83)"/><path class="cls-1" d="M1026.5,444.86c.64-.83,1.2-1.54,1.73-2.26a.76.76,0,0,1,.69-.28h14c.21,0,.44-.05.59.15l1.86,2.39Z" transform="translate(-990.98 -395.83)"/><path class="cls-1" d="M1043.5,438.77h-15.08c.64-.85,1.23-1.64,1.82-2.41.15-.2.39-.15.6-.15H1041a.77.77,0,0,1,.7.25Z" transform="translate(-990.98 -395.83)"/><path class="cls-1" d="M1014.33,475.06c-.82-1.23-1.58-2.48-2.39-3.71-.19-.29-.21-.45.08-.69a4.75,4.75,0,0,0,1.45-5.28,4.29,4.29,0,0,0-4.16-2.78c-1.33,0-2.66,0-4,0-.62,0-.74.21-.73.78,0,1.92,0,3.85,0,5.77h0c0,2,0,3.95,0,5.92,0,.48.13.71.64.66a6.89,6.89,0,0,1,1.28-.05c.62.06.71-.24.69-.75,0-.74,0-1.47,0-2.21,0-1.25.19-1.4,1.44-1.2.34,0,.48.29.63.52a12.72,12.72,0,0,1,1.19,1.86,2.92,2.92,0,0,0,3.5,1.85C1014.49,475.63,1014.72,475.63,1014.33,475.06Zm-4.92-6.1c-2,.38-2.22.23-2.22-1.93,0-.43,0-.86,0-1.29s.12-.76.67-.71.86,0,1.29,0a1.81,1.81,0,0,1,1.88,1.83A1.88,1.88,0,0,1,1009.41,469Z" transform="translate(-990.98 -395.83)"/><path class="cls-1" d="M1069.82,474.89l-4.55-10.44c-.34-.8-.7-1.59-1-2.4a.92.92,0,0,0-.42.57l-1.7,3.92c-1.22,2.81-2.42,5.62-3.67,8.42-.27.61-.06.7.48.73,1.74.1,1.74.11,2.43-1.5a4.81,4.81,0,0,0,.2-.53.69.69,0,0,1,.79-.54c1.05,0,2.09,0,3.14,0,.52,0,.73.19.92.65.75,1.95.77,1.94,2.89,1.93C1070.16,475.69,1070.16,475.68,1069.82,474.89Zm-5-4h-1.7c-.25,0-.35-.07-.24-.34.37-.87.72-1.74,1.15-2.8.42,1.06.73,1.9,1.07,2.73C1065.22,470.81,1065.13,470.9,1064.8,470.9Z" transform="translate(-990.98 -395.83)"/><path class="cls-1" d="M1002.45,475c-1.24-2.79-2.44-5.61-3.66-8.42-.65-1.49-1.3-3-2-4.58a3.55,3.55,0,0,0-.64,1.18c-1.55,3.57-3.08,7.15-4.64,10.71-.84,1.91-.86,1.89,1.24,1.82a.72.72,0,0,0,.76-.5c.19-.53.46-1,.64-1.58a.64.64,0,0,1,.73-.5c1.09,0,2.19,0,3.28,0a.71.71,0,0,1,.77.55c.27.65.32,1.52.89,1.89s1.44.08,2.17.14S1002.72,475.6,1002.45,475Zm-5.11-4.09c-2.09.17-2.09.18-1.34-1.71l.59-1.44c.4,1,.72,1.85,1.06,2.67C997.79,470.76,997.72,470.87,997.34,470.9Z" transform="translate(-990.98 -395.83)"/></svg>
